<svg width="266" height="265" viewBox="0 0 266 265" fill="none" xmlns="http://www.w3.org/2000/svg">
<path fill-rule="evenodd" clip-rule="evenodd" d="M236.842 77.8421C248.15 89.1068 251.676 102.779 252.406 118.214C253.309 134.122 253.309 181.761 252.406 197.669C251.638 213.001 248.154 226.593 237.068 237.814V238.31H236.573C225.36 249.405 211.782 252.88 196.47 253.605C180.562 254.508 132.881 254.508 116.973 253.605C101.537 252.831 87.908 249.306 76.6003 238.041C65.2927 226.776 61.7671 213.104 61.0362 197.669C60.1333 181.761 60.1333 134.079 61.0362 118.171C61.8101 102.736 65.2927 89.0638 76.6003 77.7992C87.908 66.5345 101.58 63.0089 116.973 62.278C132.881 61.3751 180.562 61.3751 196.47 62.278C211.905 63.0519 225.578 66.5775 236.842 77.8421Z" fill="#06BDD2"/>
<path d="M132.559 64.5573C94.9512 64.5573 64.6165 94.8921 64.6165 132.5C64.6165 170.108 94.9512 200.443 132.559 200.443C170.167 200.443 200.502 170.108 200.502 132.5C200.502 94.8921 170.167 64.5573 132.559 64.5573ZM132.559 176.672C108.256 176.672 88.3875 156.862 88.3875 132.5C88.3875 108.138 108.197 88.3284 132.559 88.3284C156.921 88.3284 176.731 108.138 176.731 132.5C176.731 156.862 156.862 176.672 132.559 176.672V176.672ZM219.128 61.7781C219.128 70.5888 212.033 77.6255 203.281 77.6255C194.47 77.6255 187.434 70.5297 187.434 61.7781C187.434 53.0266 194.529 45.9308 203.281 45.9308C212.033 45.9308 219.128 53.0266 219.128 61.7781ZM264.128 77.862C263.123 56.6337 258.274 37.8297 242.722 22.3371C227.229 6.84453 208.425 1.9957 187.197 0.931329C165.318 -0.310443 99.7409 -0.310443 77.862 0.931329C56.6928 1.93657 37.8888 6.78539 22.3371 22.278C6.7854 37.7706 1.9957 56.5745 0.931329 77.8029C-0.310443 99.6817 -0.310443 165.259 0.931329 187.138C1.93657 208.366 6.7854 227.17 22.3371 242.663C37.8888 258.155 56.6337 263.004 77.862 264.069C99.7409 265.31 165.318 265.31 187.197 264.069C208.425 263.063 227.229 258.215 242.722 242.663C258.215 227.17 263.063 208.366 264.128 187.138C265.37 165.259 265.37 99.7409 264.128 77.862V77.862ZM235.863 210.613C231.25 222.203 222.321 231.132 210.672 235.804C193.229 242.722 151.836 241.125 132.559 241.125C113.282 241.125 71.8306 242.663 54.4458 235.804C42.8559 231.191 33.927 222.262 29.2555 210.613C22.3371 193.169 23.9337 151.777 23.9337 132.5C23.9337 113.223 22.3962 71.7714 29.2555 54.3866C33.8678 42.7968 42.7968 33.8678 54.4458 29.1964C71.8897 22.278 113.282 23.8745 132.559 23.8745C151.836 23.8745 193.288 22.3371 210.672 29.1964C222.262 33.8087 231.191 42.7376 235.863 54.3866C242.781 71.8306 241.185 113.223 241.185 132.5C241.185 151.777 242.781 193.229 235.863 210.613Z" fill="#4A5568"/>
</svg>
