<svg width="379" height="265" viewBox="0 0 379 265" fill="none" xmlns="http://www.w3.org/2000/svg">
<g id="Group 5">
<path id="Rectangle 4" d="M116.06 85.4399C129.487 72.0696 178.722 72.0695 228.596 72.0696C278.47 72.0696 329.03 70.2058 344.33 85.4398C359.123 100.169 358.077 151.018 358.077 157.385C358.077 163.751 358.974 223.024 344.33 237.606C330.414 251.462 279.32 250.112 228.596 250.021C179.099 249.933 129.955 251.442 116.06 237.606C102.774 224.377 102.312 194.63 102.312 157.385C102.312 120.139 108.973 92.4965 116.06 85.4399Z" fill="#06BDD2"/>
<g id="Rectangle 4_2">
<mask id="path-2-inside-1" fill="white">
<path d="M20.3678 20.0013C40.2619 0.107149 113.207 0.107094 187.099 0.10715C260.991 0.107205 335.9 -2.66603 358.567 20.0012C380.483 41.9177 378.935 117.577 378.935 127.05C378.935 136.524 380.264 224.718 358.567 246.415C337.95 267.031 262.249 265.023 187.099 264.888C113.765 264.756 40.9544 267.001 20.3678 246.415C0.68419 226.731 -4.82474e-05 182.469 2.55082e-09 127.05C4.82525e-05 71.631 9.86815 30.5011 20.3678 20.0013Z"/>
</mask>
<path d="M20.3678 20.0013C40.2619 0.107149 113.207 0.107094 187.099 0.10715C260.991 0.107205 335.9 -2.66603 358.567 20.0012C380.483 41.9177 378.935 117.577 378.935 127.05C378.935 136.524 380.264 224.718 358.567 246.415C337.95 267.031 262.249 265.023 187.099 264.888C113.765 264.756 40.9544 267.001 20.3678 246.415C0.68419 226.731 -4.82474e-05 182.469 2.55082e-09 127.05C4.82525e-05 71.631 9.86815 30.5011 20.3678 20.0013Z" stroke="#4A5568" stroke-width="66" mask="url(#path-2-inside-1)"/>
</g>
<path id="Vector 2" d="M150.626 188.627V77.7886L248.676 134.155L150.626 188.627Z" fill="#4A5568"/>
</g>
</svg>
